<?xml version="1.0" encoding="utf-8"?>
<!-- Generator: Adobe Illustrator 25.0.0, SVG Export Plug-In . SVG Version: 6.00 Build 0)  -->
<svg version="1.1" id="Layer_1" xmlns="http://www.w3.org/2000/svg" xmlns:xlink="http://www.w3.org/1999/xlink" x="0px" y="0px"
	 viewBox="0 0 500 500" style="enable-background:new 0 0 500 500;" xml:space="preserve">
<style type="text/css">
	.st0{opacity:0.7;fill:#FFFFFF;enable-background:new    ;}
	.st1{fill:#79AC78;}
	.st2{fill:none;stroke:#263238;stroke-linecap:round;stroke-linejoin:round;stroke-miterlimit:10;}
	.st3{fill:#92E3A9;}
	.st4{opacity:0.3;clip-path:url(#SVGID_2_);fill-opacity:0.7;enable-background:new    ;}
	.st5{clip-path:url(#SVGID_4_);fill:none;stroke:#263238;stroke-linecap:round;stroke-linejoin:round;stroke-miterlimit:10;}
	.st6{clip-path:url(#SVGID_6_);}
	.st7{fill:#92E3A9;stroke:#263238;stroke-linecap:round;stroke-linejoin:round;stroke-miterlimit:10;}
	.st8{opacity:0.2;clip-path:url(#SVGID_8_);fill-opacity:0.7;enable-background:new    ;}
	.st9{opacity:0.3;fill-opacity:0.7;enable-background:new    ;}
	.st10{fill:#92E3A9;stroke:#263238;stroke-width:1;stroke-linecap:round;stroke-linejoin:round;stroke-miterlimit:10.0001;}
	.st11{opacity:0.2;fill-opacity:0.7;enable-background:new    ;}
	.st12{fill:#FFFFFF;}
	.st13{clip-path:url(#SVGID_10_);fill:#263238;}
	.st14{clip-path:url(#SVGID_12_);fill:#263238;}
	.st15{clip-path:url(#SVGID_14_);}
	.st16{fill:#263238;}
	.st17{clip-path:url(#SVGID_16_);fill:#BFBFBF;stroke:#263238;stroke-width:1;stroke-miterlimit:10.0001;}
	.st18{clip-path:url(#SVGID_18_);}
	.st19{opacity:0.5;clip-path:url(#SVGID_20_);fill:#FFFFFF;enable-background:new    ;}
	.st20{fill:none;stroke:#263238;stroke-width:1;stroke-miterlimit:10.0001;}
	.st21{fill:#757575;}
	.st22{fill:#999999;}
	.st23{fill:#BFBFBF;}
	.st24{fill:#92E3A9;stroke:#263238;stroke-miterlimit:10;}
	.st25{fill:#757575;stroke:#263238;stroke-linecap:round;stroke-linejoin:round;stroke-miterlimit:10;}
	.st26{fill:#999999;stroke:#263238;stroke-linecap:round;stroke-linejoin:round;stroke-miterlimit:10;}
	.st27{fill:#BFBFBF;stroke:#263238;stroke-miterlimit:10;}
	.st28{fill:#FFFFFF;stroke:#263238;stroke-linecap:round;stroke-linejoin:round;stroke-miterlimit:10;}
	.st29{clip-path:url(#SVGID_22_);}
	.st30{fill:#757575;stroke:#263238;stroke-width:1;stroke-linecap:round;stroke-linejoin:round;stroke-miterlimit:10.0002;}
	.st31{fill:#92E3A9;stroke:#263238;stroke-width:1;stroke-miterlimit:10.0001;}
	.st32{fill:#757575;stroke:#263238;stroke-width:1;stroke-linecap:round;stroke-linejoin:round;stroke-miterlimit:10.0001;}
	.st33{fill:#92E3A9;stroke:#263238;stroke-width:1;stroke-miterlimit:10.0002;}
	.st34{clip-path:url(#SVGID_24_);}
	.st35{opacity:0.2;clip-path:url(#SVGID_26_);fill-opacity:0.7;enable-background:new    ;}
	.st36{opacity:0.4;fill:#92E3A9;enable-background:new    ;}
	.st37{opacity:0.3;clip-path:url(#SVGID_28_);fill-opacity:0.7;enable-background:new    ;}
	.st38{opacity:0.3;clip-path:url(#SVGID_30_);fill-opacity:0.7;enable-background:new    ;}
	.st39{clip-path:url(#SVGID_32_);fill:#263238;}
	.st40{clip-path:url(#SVGID_34_);fill:#263238;}
	.st41{clip-path:url(#SVGID_36_);}
	.st42{clip-path:url(#SVGID_38_);}
	.st43{clip-path:url(#SVGID_40_);}
	.st44{opacity:0.2;clip-path:url(#SVGID_42_);fill-opacity:0.7;enable-background:new    ;}
</style>
<g id="Background_Simple">
	<g>
		<path class="st0" d="M67.9,167.1c0,0-27.9,72,11.3,144.5c39.2,72.5,119.9,110.8,184.5,143.5s131.7,16.8,163.5-36.8
			s-11.8-91.9-11.9-168.4c-0.1-76.5,11.4-96.7-30-161.4C344,23.9,242.3,9.6,165.5,57.5C88.6,105.5,67.9,167.1,67.9,167.1z"/>
	</g>
	<g>
		<path class="st1" d="M228.3,51.3c124-11,124.2,58.9,180.1,124.1s67.8,94.8,46.8,169.9S363.1,479.4,275.3,446s-138.1-1.3-193.5-31
			c-55.4-29.6-76-86.9-35.4-154.4S75.3,64.9,228.3,51.3z"/>
	</g>
</g>
<g id="Doodles">
	<g>
		<g>
			<path class="st2" d="M262.8,86.3l-20.4,4.3c-2.8,0.6-5.5-1.2-6-3.9l-4.3-20.4c-0.6-2.8,1.2-5.5,3.9-6l20.4-4.3
				c2.8-0.6,5.5,1.2,6,3.9l4.3,20.4C267.3,83,265.6,85.7,262.8,86.3z"/>
			<line class="st2" x1="248.1" y1="67" x2="250.7" y2="79.4"/>
			<line class="st2" x1="255.6" y1="71.9" x2="243.2" y2="74.5"/>
		</g>
		<g>
			<path class="st2" d="M468.5,304.4l-20.4,4.3c-2.8,0.6-5.5-1.2-6-3.9l-4.3-20.4c-0.6-2.8,1.2-5.5,3.9-6l20.4-4.3
				c2.8-0.6,5.5,1.2,6,3.9l4.3,20.4C473,301.1,471.2,303.8,468.5,304.4z"/>
			<line class="st2" x1="458.5" y1="286.1" x2="451.6" y2="296.7"/>
			<line class="st2" x1="460.4" y1="294.8" x2="449.8" y2="287.9"/>
		</g>
		<g>
			<path class="st2" d="M185.5,436.7l-20.8-1.2c-2.8-0.2-5-2.6-4.8-5.4l1.2-20.8c0.2-2.8,2.6-5,5.4-4.8l20.8,1.2
				c2.8,0.2,5,2.6,4.8,5.4l-1.2,20.8C190.7,434.8,188.3,436.9,185.5,436.7z"/>
			<line class="st2" x1="182.3" y1="421" x2="169.6" y2="420.3"/>
		</g>
		<g>
			<path class="st2" d="M52.5,291.2l-19.8-6.6c-2.7-0.9-4.1-3.8-3.2-6.4l6.6-19.8c0.9-2.7,3.8-4.1,6.4-3.2l19.8,6.6
				c2.7,0.9,4.1,3.8,3.2,6.4L58.9,288C58,290.6,55.1,292.1,52.5,291.2z"/>
			<line class="st2" x1="55.4" y1="269.2" x2="39.5" y2="277.2"/>
			<g>
				<path class="st2" d="M46.3,265.9c0.5,1.1,0.1,2.4-1,3c-1.1,0.5-2.4,0.1-3-1s-0.1-2.4,1-3S45.7,264.9,46.3,265.9z"/>
				<path class="st2" d="M52.6,278.5c0.5,1.1,0.1,2.4-1,3s-2.4,0.1-3-1c-0.5-1.1-0.1-2.4,1-3S52,277.4,52.6,278.5z"/>
			</g>
		</g>
	</g>
</g>
<g id="Coins">
	<g>
		<g>
			<path id="XMLID_1_" class="st3" d="M257.7,400.8c-5.8,8.4-17.3,10.5-25.6,4.7c-3.2-2.2-5.5-5.3-6.8-8.7c-2-5.5-1.4-11.8,2.1-16.9
				c2.5-3.6,6-6,9.9-7.2c5.2-1.6,11-0.8,15.8,2.5C261.4,380.9,263.5,392.4,257.7,400.8z"/>
		</g>
		<g>
			<defs>
				<path id="SVGID_1_" d="M257.7,400.8c-5.8,8.4-17.3,10.5-25.6,4.7c-3.2-2.2-5.5-5.3-6.8-8.7c-2-5.5-1.4-11.8,2.1-16.9
					c2.5-3.6,6-6,9.9-7.2c5.2-1.6,11-0.8,15.8,2.5C261.4,380.9,263.5,392.4,257.7,400.8z"/>
			</defs>
			<clipPath id="SVGID_2_">
				<use xlink:href="#SVGID_1_"  style="overflow:visible;"/>
			</clipPath>
			<path class="st4" d="M255.3,399.1c-4.9,7-14.5,8.8-21.6,3.9s-8.8-14.5-3.9-21.6c4.9-7,14.5-8.8,21.6-3.9
				C258.4,382.4,260.2,392.1,255.3,399.1z"/>
		</g>
		<g>
			<defs>
				<path id="SVGID_3_" d="M257.7,400.8c-5.8,8.4-17.3,10.5-25.6,4.7c-3.2-2.2-5.5-5.3-6.8-8.7c-2-5.5-1.4-11.8,2.1-16.9
					c2.5-3.6,6-6,9.9-7.2c5.2-1.6,11-0.8,15.8,2.5C261.4,380.9,263.5,392.4,257.7,400.8z"/>
			</defs>
			<clipPath id="SVGID_4_">
				<use xlink:href="#SVGID_3_"  style="overflow:visible;"/>
			</clipPath>
			<path class="st5" d="M255.3,399.1c-4.9,7-14.5,8.8-21.6,3.9s-8.8-14.5-3.9-21.6c4.9-7,14.5-8.8,21.6-3.9
				C258.4,382.4,260.2,392.1,255.3,399.1z"/>
		</g>
		<g>
			<defs>
				<path id="SVGID_5_" d="M257.7,400.8c-5.8,8.4-17.3,10.5-25.6,4.7c-3.2-2.2-5.5-5.3-6.8-8.7c-2-5.5-1.4-11.8,2.1-16.9
					c2.5-3.6,6-6,9.9-7.2c5.2-1.6,11-0.8,15.8,2.5C261.4,380.9,263.5,392.4,257.7,400.8z"/>
			</defs>
			<clipPath id="SVGID_6_">
				<use xlink:href="#SVGID_5_"  style="overflow:visible;"/>
			</clipPath>
			<g class="st6">
				<path class="st7" d="M246.5,382.6l0.7-1.1l1.9,1.3l-0.7,1.1c1.4,1.4,1.4,3.3,0,5.2l-0.3,0.5l-2.2-1.5l0.4-0.6
					c0.7-1,0.6-1.7-0.2-2.2s-1.4-0.4-2.1,0.6c-0.7,1-0.8,2-0.1,4.3c0.8,2.8,0.7,4.4-0.5,6c-1.4,2-3.1,2.6-4.9,1.9l-0.7,1.1l-1.9-1.3
					l0.7-1.1c-1.4-1.5-1.4-3.3,0-5.3l0.7-1l2.2,1.5l-0.8,1.1c-0.7,1-0.5,1.7,0.2,2.2s1.4,0.4,2.2-0.6s0.8-2.1,0.1-4.3
					c-0.8-2.8-0.7-4.4,0.5-6C243,382.5,244.7,381.8,246.5,382.6z"/>
			</g>
		</g>
		<g>
			<defs>
				<path id="SVGID_7_" d="M257.7,400.8c-5.8,8.4-17.3,10.5-25.6,4.7c-3.2-2.2-5.5-5.3-6.8-8.7c-2-5.5-1.4-11.8,2.1-16.9
					c2.5-3.6,6-6,9.9-7.2c5.2-1.6,11-0.8,15.8,2.5C261.4,380.9,263.5,392.4,257.7,400.8z"/>
			</defs>
			<clipPath id="SVGID_8_">
				<use xlink:href="#SVGID_7_"  style="overflow:visible;"/>
			</clipPath>
			<path class="st8" d="M237.4,375.4c0,9.1-4.9,17-12.1,21.4c-2-5.5-1.4-11.8,2.1-16.9c2.5-3.6,6-6,9.9-7.2
				C237.4,373.6,237.4,374.5,237.4,375.4z"/>
		</g>
		<g>
			<path id="XMLID_2_" class="st2" d="M257.7,400.8c-5.8,8.4-17.3,10.5-25.6,4.7c-3.2-2.2-5.5-5.3-6.8-8.7c-2-5.5-1.4-11.8,2.1-16.9
				c2.5-3.6,6-6,9.9-7.2c5.2-1.6,11-0.8,15.8,2.5C261.4,380.9,263.5,392.4,257.7,400.8z"/>
		</g>
	</g>
	<g>
		<circle class="st7" cx="216.2" cy="374.8" r="18.4"/>
		<circle class="st9" cx="216.2" cy="374.8" r="15.5"/>
		<circle class="st2" cx="216.2" cy="374.8" r="15.5"/>
		<g>
			<path class="st7" d="M215.1,366.2v-1.3h2.3v1.3c2,0.4,3,1.9,3,4.3v0.6h-2.6v-0.7c0-1.3-0.5-1.7-1.4-1.7s-1.4,0.5-1.4,1.7
				c0,1.3,0.5,2.1,2.4,3.6c2.3,1.8,3,3.2,3,5.2c0,2.4-1,3.9-3,4.3v1.3h-2.3v-1.3c-2-0.4-3-1.9-3-4.3v-1.2h2.6v1.4
				c0,1.3,0.6,1.7,1.4,1.7s1.4-0.5,1.4-1.7c0-1.3-0.5-2.2-2.4-3.6c-2.3-1.8-3-3.2-3-5.2C212.2,368.1,213.2,366.6,215.1,366.2z"/>
		</g>
	</g>
	<g>
		<ellipse class="st10" cx="304.2" cy="380.3" rx="18.4" ry="18.4"/>
		<path class="st9" d="M315.5,369.8c5.8,6.3,5.5,16.1-0.8,21.9c-6.3,5.8-16.1,5.5-21.9-0.8c-5.8-6.3-5.5-16.1,0.8-21.9
			C299.9,363.2,309.7,363.5,315.5,369.8z"/>
		<path class="st2" d="M315.5,369.8c5.8,6.3,5.5,16.1-0.8,21.9c-6.3,5.8-16.1,5.5-21.9-0.8c-5.8-6.3-5.5-16.1,0.8-21.9
			C299.9,363.2,309.7,363.5,315.5,369.8z"/>
		<g>
			<path class="st7" d="M297.5,374.8l-0.9-1l1.7-1.5l0.9,1c1.7-1,3.5-0.6,5.1,1.1l0.4,0.4l-1.9,1.8l-0.5-0.5
				c-0.9-0.9-1.5-0.9-2.2-0.3c-0.6,0.6-0.7,1.3,0.2,2.2c0.9,0.9,1.8,1.2,4.2,1c2.9-0.2,4.4,0.3,5.8,1.7c1.6,1.8,1.9,3.6,0.7,5.2
				l0.9,0.9l-1.7,1.5l-0.9-0.9c-1.7,1.1-3.5,0.6-5.1-1.1l-0.8-0.9l1.9-1.8l0.9,1c0.9,0.9,1.6,0.9,2.2,0.3c0.6-0.6,0.7-1.3-0.1-2.2
				c-0.9-0.9-1.8-1.2-4.2-1c-2.9,0.2-4.4-0.3-5.8-1.7C296.6,378.2,296.3,376.4,297.5,374.8z"/>
		</g>
	</g>
</g>
<g id="Right_hand">
	<g>
		<path class="st11" d="M296.6,300.3c0,0-0.1,38.2,0,40.5s3,15.7,3,15.7l-9.3,17.1l8,6.4l15.6-15.3c0,0,13.2,8.2,15.7,19.9
			c2.4,11.7,16.8,20.2,31.8,52.6c15,32.4,32-72.5,32-72.5l-46.1-58.1L296.6,300.3z"/>
		<g>
			<g>
				<polygon id="XMLID_307_" class="st12" points="437.6,94.8 423.5,232.7 414.8,317.5 293.3,305.1 269.7,302.7 254.6,301.1 
					268,170.2 277.4,78.4 				"/>
			</g>
			<g>
				<defs>
					<polygon id="SVGID_9_" points="437.6,94.8 423.5,232.7 414.8,317.5 293.3,305.1 269.7,302.7 254.6,301.1 268,170.2 277.4,78.4 
											"/>
				</defs>
				<clipPath id="SVGID_10_">
					<use xlink:href="#SVGID_9_"  style="overflow:visible;"/>
				</clipPath>
				<path class="st13" d="M391.1,100l-69.2-7.1c-1.3-0.1-2.5,0.8-2.6,2.1c-0.1,1.3,0.8,2.5,2.1,2.6l69.2,7.1
					c1.3,0.1,2.5-0.8,2.6-2.1C393.3,101.3,392.4,100.1,391.1,100z"/>
			</g>
			<g>
				<defs>
					<polygon id="SVGID_11_" points="437.6,94.8 423.5,232.7 414.8,317.5 293.3,305.1 269.7,302.7 254.6,301.1 268,170.2 
						277.4,78.4 					"/>
				</defs>
				<clipPath id="SVGID_12_">
					<use xlink:href="#SVGID_11_"  style="overflow:visible;"/>
				</clipPath>
				<path class="st14" d="M372.8,107.8l-34.6-3.5c-0.6-0.1-1.2,0.4-1.3,1.1c-0.1,0.6,0.4,1.2,1.1,1.3l34.6,3.5
					c0.6,0.1,1.2-0.4,1.3-1.1C373.9,108.5,373.4,107.9,372.8,107.8z"/>
			</g>
			<g>
				<defs>
					<polygon id="SVGID_13_" points="437.6,94.8 423.5,232.7 414.8,317.5 293.3,305.1 269.7,302.7 254.6,301.1 268,170.2 
						277.4,78.4 					"/>
				</defs>
				<clipPath id="SVGID_14_">
					<use xlink:href="#SVGID_13_"  style="overflow:visible;"/>
				</clipPath>
				<g class="st15">
					<path class="st16" d="M410.8,209.6l-112.2-11.5c-0.6-0.1-1.2,0.4-1.3,1.1c-0.1,0.6,0.4,1.2,1.1,1.3L410.6,212
						c0.6,0.1,1.2-0.4,1.3-1.1S411.5,209.7,410.8,209.6z"/>
					<path class="st16" d="M410,218.1l-130.5-13.4c-0.6-0.1-1.2,0.4-1.3,1.1c-0.1,0.6,0.4,1.2,1.1,1.3l130.5,13.4
						c0.6,0.1,1.2-0.4,1.3-1.1C411.1,218.7,410.6,218.1,410,218.1z"/>
					<path class="st16" d="M372.5,222.8l-94-9.6c-0.6-0.1-1.2,0.4-1.3,1.1c-0.1,0.6,0.4,1.2,1.1,1.3l94,9.6c0.6,0.1,1.2-0.4,1.3-1.1
						S373.2,222.8,372.5,222.8z"/>
				</g>
			</g>
			<g>
				<defs>
					<polygon id="SVGID_15_" points="198.8,135.9 334.5,164.1 418,181.3 393.3,300.9 388.4,324.1 385.4,339 256.5,312.4 
						166.1,293.6 					"/>
				</defs>
				<clipPath id="SVGID_16_">
					<use xlink:href="#SVGID_15_"  style="overflow:visible;"/>
				</clipPath>
				
					<rect x="322.2" y="181.5" transform="matrix(0.1019 -0.9948 0.9948 0.1019 59.905 561.592)" class="st17" width="37.5" height="132.3"/>
			</g>
			<g>
				<defs>
					<polygon id="SVGID_17_" points="437.6,94.8 423.5,232.7 414.8,317.5 293.3,305.1 269.7,302.7 254.6,301.1 268,170.2 
						277.4,78.4 					"/>
				</defs>
				<clipPath id="SVGID_18_">
					<use xlink:href="#SVGID_17_"  style="overflow:visible;"/>
				</clipPath>
				<g class="st18">
					<g>
						<g>
							<g>
								<ellipse id="XMLID_310_" class="st3" cx="318.7" cy="156.6" rx="29.3" ry="29.3"/>
							</g>
							<g>
								<defs>
									<circle id="SVGID_19_" cx="318.7" cy="156.6" r="29.3"/>
								</defs>
								<clipPath id="SVGID_20_">
									<use xlink:href="#SVGID_19_"  style="overflow:visible;"/>
								</clipPath>
								<ellipse class="st19" cx="318.7" cy="156.6" rx="29.3" ry="29.3"/>
							</g>
							<g>
								<ellipse id="XMLID_3_" class="st20" cx="318.7" cy="156.6" rx="29.3" ry="29.3"/>
							</g>
						</g>
						<g>
							<path class="st12" d="M319.5,156.6l24.4,12.3c1.4-2.9,2.3-6,2.6-9.3c0.8-7.5-1.5-14.6-5.9-20.2L319.5,156.6z"/>
							<path class="st3" d="M319.7,155.2l20.4-16.6c-3-3.6-6.9-6.4-11.4-8.1l-3.7,10.1L319.7,155.2z"/>
							<path class="st21" d="M322,128.9l-2.5,24.1l8.3-22.8C326,129.6,324,129.1,322,128.9z"/>
							<path class="st22" d="M318.3,156.3l2.8-27.6c-15.2-1.3-28.7,9.8-30.2,25c-0.5,5,0.3,9.7,2.2,14L318.3,156.3z"/>
							<path class="st23" d="M315.9,184.5c11.7,1.2,22.5-5,27.6-14.8l-24.8-12.5l-25.3,11.5C297.5,177.2,305.8,183.4,315.9,184.5z"
								/>
						</g>
					</g>
					<g>
						<g>
							<path class="st24" d="M365.2,142.2l-3.3-0.3c-0.3,0-0.6-0.3-0.6-0.7l0.3-3.3c0-0.3,0.3-0.6,0.7-0.6l3.3,0.3
								c0.3,0,0.6,0.3,0.6,0.7l-0.3,3.3C365.9,142,365.6,142.3,365.2,142.2z"/>
							<g>
								<g>
									<path class="st16" d="M412.1,144.1l-43.1-4.4c-0.3,0-0.5-0.3-0.5-0.6s0.3-0.5,0.6-0.5l43.1,4.4c0.3,0,0.5,0.3,0.5,0.6
										C412.7,143.9,412.4,144.1,412.1,144.1z"/>
								</g>
								<g>
									<path class="st16" d="M407.7,145.9l-38.8-4c-0.3,0-0.5-0.3-0.5-0.6s0.3-0.5,0.6-0.5l38.8,4c0.3,0,0.5,0.3,0.5,0.6
										C408.2,145.8,408,146,407.7,145.9z"/>
								</g>
							</g>
						</g>
						<g>
							<path class="st25" d="M364.2,152.5l-3.3-0.3c-0.3,0-0.6-0.3-0.6-0.7l0.3-3.3c0-0.3,0.3-0.6,0.7-0.6l3.3,0.3
								c0.3,0,0.6,0.3,0.6,0.7l-0.3,3.3C364.8,152.3,364.5,152.5,364.2,152.5z"/>
							<g>
								<g>
									<path class="st16" d="M411.1,154.4l-43.1-4.4c-0.3,0-0.5-0.3-0.5-0.6s0.3-0.5,0.6-0.5l43.1,4.4c0.3,0,0.5,0.3,0.5,0.6
										C411.6,154.2,411.4,154.4,411.1,154.4z"/>
								</g>
								<g>
									<path class="st16" d="M406.6,156.2l-38.8-4c-0.3,0-0.5-0.3-0.5-0.6s0.3-0.5,0.6-0.5l38.8,4c0.3,0,0.5,0.3,0.5,0.6
										C407.2,156,406.9,156.2,406.6,156.2z"/>
								</g>
							</g>
						</g>
						<g>
							<path class="st26" d="M363.1,162.8l-3.3-0.3c-0.3,0-0.6-0.3-0.6-0.7l0.3-3.3c0-0.3,0.3-0.6,0.7-0.6l3.3,0.3
								c0.3,0,0.6,0.3,0.6,0.7l-0.3,3.3C363.8,162.6,363.5,162.8,363.1,162.8z"/>
							<g>
								<g>
									<path class="st16" d="M410,164.6l-43.1-4.4c-0.3,0-0.5-0.3-0.5-0.6s0.3-0.5,0.6-0.5l43.1,4.4c0.3,0,0.5,0.3,0.5,0.6
										C410.6,164.4,410.3,164.7,410,164.6z"/>
								</g>
								<g>
									<path class="st16" d="M405.6,166.5l-38.8-4c-0.3,0-0.5-0.3-0.5-0.6s0.3-0.5,0.6-0.5l38.8,4c0.3,0,0.5,0.3,0.5,0.6
										S405.9,166.5,405.6,166.5z"/>
								</g>
							</g>
						</g>
						<g>
							<path class="st27" d="M362.1,173l-3.3-0.3c-0.3,0-0.6-0.3-0.6-0.7l0.3-3.3c0-0.3,0.3-0.6,0.7-0.6l3.3,0.3
								c0.3,0,0.6,0.3,0.6,0.7l-0.3,3.3C362.7,172.8,362.4,173.1,362.1,173z"/>
							<g>
								<g>
									<path class="st16" d="M409,174.9l-43.1-4.4c-0.3,0-0.5-0.3-0.5-0.6s0.3-0.5,0.6-0.5l43.1,4.4c0.3,0,0.5,0.3,0.5,0.6
										C409.5,174.7,409.3,174.9,409,174.9z"/>
								</g>
								<g>
									<path class="st16" d="M404.5,176.8l-38.8-4c-0.3,0-0.5-0.3-0.5-0.6s0.3-0.5,0.6-0.5l38.8,4c0.3,0,0.5,0.3,0.5,0.6
										S404.8,176.8,404.5,176.8z"/>
								</g>
							</g>
						</g>
						<g>
							<path class="st28" d="M361,183.3l-3.3-0.3c-0.3,0-0.6-0.3-0.6-0.7l0.3-3.3c0-0.3,0.3-0.6,0.7-0.6l3.3,0.3
								c0.3,0,0.6,0.3,0.6,0.7l-0.3,3.3C361.7,183.1,361.4,183.3,361,183.3z"/>
							<g>
								<g>
									<path class="st16" d="M407.9,185.2l-43.1-4.4c-0.3,0-0.5-0.3-0.5-0.6s0.3-0.5,0.6-0.5l43.1,4.4c0.3,0,0.5,0.3,0.5,0.6
										C408.5,185,408.2,185.2,407.9,185.2z"/>
								</g>
								<g>
									<path class="st16" d="M403.5,187l-38.8-4c-0.3,0-0.5-0.3-0.5-0.6s0.3-0.5,0.6-0.5l38.8,4c0.3,0,0.5,0.3,0.5,0.6
										C404,186.9,403.8,187.1,403.5,187z"/>
								</g>
							</g>
						</g>
					</g>
				</g>
			</g>
			<g>
				<defs>
					<polygon id="SVGID_21_" points="437.6,94.8 423.5,232.7 414.8,317.5 293.3,305.1 269.7,302.7 254.6,301.1 268,170.2 
						277.4,78.4 					"/>
				</defs>
				<clipPath id="SVGID_22_">
					<use xlink:href="#SVGID_21_"  style="overflow:visible;"/>
				</clipPath>
				<g class="st29">
					<g>
						
							<rect x="383.7" y="252.3" transform="matrix(0.102 -0.9948 0.9948 0.102 98.6882 616.3285)" class="st30" width="14.1" height="2.5"/>
						
							<rect x="387.2" y="253.9" transform="matrix(0.1019 -0.9948 0.9948 0.1019 96.9467 617.6411)" class="st31" width="6.7" height="2.5"/>
					</g>
					<g>
						
							<rect x="389.5" y="249.3" transform="matrix(0.1019 -0.9948 0.9948 0.1019 106.949 619.5576)" class="st32" width="14.1" height="2.5"/>
						
							<rect x="393.3" y="249.3" transform="matrix(0.102 -0.9948 0.9948 0.102 106.9247 619.5599)" class="st33" width="6.7" height="2.5"/>
					</g>
					<g>
						
							<rect x="394.8" y="252.6" transform="matrix(0.1019 -0.9948 0.9948 0.1019 108.4245 627.7185)" class="st32" width="14.1" height="2.5"/>
						
							<rect x="398.7" y="251" transform="matrix(0.102 -0.9948 0.9948 0.102 110.138 626.4271)" class="st33" width="6.7" height="2.5"/>
					</g>
					<g>
						
							<rect x="378.4" y="248.9" transform="matrix(0.102 -0.9948 0.9948 0.102 97.3007 608.1042)" class="st30" width="14.1" height="2.5"/>
						
							<rect x="382" y="250.5" transform="matrix(0.1019 -0.9948 0.9948 0.1019 95.5593 609.4163)" class="st31" width="6.7" height="2.5"/>
					</g>
					<g>
						
							<rect x="372.4" y="252.5" transform="matrix(0.1019 -0.9948 0.9948 0.1019 88.3753 605.4366)" class="st32" width="14.1" height="2.5"/>
						
							<rect x="376" y="254.6" transform="matrix(0.102 -0.9948 0.9948 0.102 86.062 607.0961)" class="st33" width="6.7" height="2.5"/>
					</g>
					<g>
						
							<rect x="367.3" y="248.3" transform="matrix(0.1019 -0.9948 0.9948 0.1019 87.9155 596.5328)" class="st32" width="14.1" height="2.5"/>
						
							<rect x="370.7" y="251.5" transform="matrix(0.102 -0.9948 0.9948 0.102 84.45 599.0363)" class="st33" width="6.7" height="2.5"/>
					</g>
					<g>
						
							<rect x="361" y="255.1" transform="matrix(0.102 -0.9948 0.9948 0.102 75.5223 596.3323)" class="st30" width="14.1" height="2.5"/>
						
							<rect x="364.4" y="258.3" transform="matrix(0.102 -0.9948 0.9948 0.102 72.0583 598.8716)" class="st33" width="6.7" height="2.5"/>
					</g>
					<g>
						
							<rect x="356.4" y="245.7" transform="matrix(0.1019 -0.9948 0.9948 0.1019 80.7343 583.3071)" class="st32" width="14.1" height="2.5"/>
						
							<rect x="359.9" y="247.3" transform="matrix(0.1019 -0.9948 0.9948 0.1019 78.9966 584.583)" class="st31" width="6.7" height="2.5"/>
					</g>
					<g>
						
							<rect x="350.9" y="244.3" transform="matrix(0.102 -0.9948 0.9948 0.102 77.2236 576.6044)" class="st30" width="14.1" height="2.5"/>
						
							<rect x="354.8" y="242.7" transform="matrix(0.1019 -0.9948 0.9948 0.1019 78.9334 575.3862)" class="st31" width="6.7" height="2.5"/>
					</g>
					<g>
						
							<rect x="344.5" y="252.6" transform="matrix(0.1019 -0.9948 0.9948 0.1019 63.2297 577.6472)" class="st32" width="14.1" height="2.5"/>
						
							<rect x="348.4" y="250.5" transform="matrix(0.1019 -0.9948 0.9948 0.1019 65.5132 575.9735)" class="st31" width="6.7" height="2.5"/>
					</g>
					<g>
						
							<rect x="339.6" y="245.8" transform="matrix(0.1019 -0.9948 0.9948 0.1019 65.5368 566.715)" class="st32" width="14.1" height="2.5"/>
						
							<rect x="343.2" y="246.9" transform="matrix(0.1019 -0.9948 0.9948 0.1019 64.3695 567.5687)" class="st31" width="6.7" height="2.5"/>
					</g>
					<g>
						
							<rect x="333.7" y="248.9" transform="matrix(0.102 -0.9948 0.9948 0.102 57.1459 563.5857)" class="st30" width="14.1" height="2.5"/>
						
							<rect x="337.2" y="250.5" transform="matrix(0.1019 -0.9948 0.9948 0.1019 55.4025 564.8947)" class="st31" width="6.7" height="2.5"/>
					</g>
					<g>
						
							<rect x="327.5" y="254.6" transform="matrix(0.102 -0.9948 0.9948 0.102 45.8853 562.5952)" class="st30" width="14.1" height="2.5"/>
						
							<rect x="330.8" y="258.4" transform="matrix(0.1019 -0.9948 0.9948 0.1019 41.8398 565.5898)" class="st31" width="6.7" height="2.5"/>
					</g>
					<g>
						
							<rect x="322.9" y="245.2" transform="matrix(0.1019 -0.9948 0.9948 0.1019 51.151 549.5275)" class="st32" width="14.1" height="2.5"/>
						
							<rect x="326.4" y="247.3" transform="matrix(0.1019 -0.9948 0.9948 0.1019 48.8319 551.224)" class="st31" width="6.7" height="2.5"/>
					</g>
					<g>
						
							<rect x="318" y="238.4" transform="matrix(0.102 -0.9948 0.9948 0.102 53.4597 538.5636)" class="st30" width="14.1" height="2.5"/>
						
							<rect x="321.5" y="240.6" transform="matrix(0.1019 -0.9948 0.9948 0.1019 51.1399 540.2925)" class="st31" width="6.7" height="2.5"/>
					</g>
					<g>
						
							<rect x="311.7" y="245.3" transform="matrix(0.1019 -0.9948 0.9948 0.1019 40.9642 538.503)" class="st32" width="14.1" height="2.5"/>
						
							<rect x="315.6" y="243.7" transform="matrix(0.102 -0.9948 0.9948 0.102 42.6807 537.218)" class="st33" width="6.7" height="2.5"/>
					</g>
					<g>
						
							<rect x="305.3" y="252.7" transform="matrix(0.1019 -0.9948 0.9948 0.1019 27.925 538.8136)" class="st32" width="14.1" height="2.5"/>
						
							<rect x="309.3" y="250.1" transform="matrix(0.1019 -0.9948 0.9948 0.1019 30.7863 536.7176)" class="st31" width="6.7" height="2.5"/>
					</g>
					<g>
						
							<rect x="300.6" y="244.2" transform="matrix(0.1019 -0.9948 0.9948 0.1019 32.1534 526.4743)" class="st32" width="14.1" height="2.5"/>
						
							<rect x="304.2" y="245.8" transform="matrix(0.102 -0.9948 0.9948 0.102 30.4161 527.7178)" class="st33" width="6.7" height="2.5"/>
					</g>
					<g>
						
							<rect x="295.3" y="241.3" transform="matrix(0.102 -0.9948 0.9948 0.102 30.2947 518.5666)" class="st30" width="14.1" height="2.5"/>
						
							<rect x="299.3" y="239.2" transform="matrix(0.1019 -0.9948 0.9948 0.1019 32.5748 516.9237)" class="st31" width="6.7" height="2.5"/>
					</g>
					<g>
						
							<rect x="289.3" y="245.1" transform="matrix(0.102 -0.9948 0.9948 0.102 21.1216 516.0422)" class="st30" width="14.1" height="2.5"/>
						
							<rect x="292.7" y="248.8" transform="matrix(0.1019 -0.9948 0.9948 0.1019 17.0792 519.0344)" class="st31" width="6.7" height="2.5"/>
					</g>
					<g>
						
							<rect x="284.2" y="240.2" transform="matrix(0.1019 -0.9948 0.9948 0.1019 21.4783 506.5687)" class="st32" width="14.1" height="2.5"/>
						
							<rect x="287.7" y="242.8" transform="matrix(0.102 -0.9948 0.9948 0.102 18.5918 508.6565)" class="st33" width="6.7" height="2.5"/>
					</g>
					<g>
						
							<rect x="278.5" y="241.5" transform="matrix(0.1019 -0.9948 0.9948 0.1019 15.0106 502.0636)" class="st32" width="14.1" height="2.5"/>
						
							<rect x="281.9" y="244.7" transform="matrix(0.1019 -0.9948 0.9948 0.1019 11.5462 504.6033)" class="st31" width="6.7" height="2.5"/>
					</g>
					<g>
						
							<rect x="273.2" y="239.1" transform="matrix(0.1019 -0.9948 0.9948 0.1019 12.5688 494.6117)" class="st32" width="14.1" height="2.5"/>
						
							<rect x="277.2" y="235.9" transform="matrix(0.1019 -0.9948 0.9948 0.1019 16.0057 492.0943)" class="st31" width="6.7" height="2.5"/>
					</g>
				</g>
			</g>
			<g>
				<defs>
					<polygon id="SVGID_23_" points="437.6,94.8 423.5,232.7 414.8,317.5 293.3,305.1 269.7,302.7 254.6,301.1 268,170.2 
						277.4,78.4 					"/>
				</defs>
				<clipPath id="SVGID_24_">
					<use xlink:href="#SVGID_23_"  style="overflow:visible;"/>
				</clipPath>
				<g class="st34">
					<path class="st16" d="M403.9,277.7l-112.2-11.5c-0.6-0.1-1.2,0.4-1.3,1.1c-0.1,0.6,0.4,1.2,1.1,1.3L403.6,280
						c0.6,0.1,1.2-0.4,1.3-1.1C405,278.3,404.5,277.7,403.9,277.7z"/>
					<path class="st16" d="M403,286.1l-130.5-13.4c-0.6-0.1-1.2,0.4-1.3,1.1c-0.1,0.6,0.4,1.2,1.1,1.3l130.5,13.4
						c0.6,0.1,1.2-0.4,1.3-1.1C404.1,286.8,403.6,286.2,403,286.1z"/>
					<path class="st16" d="M347.3,289l-75.7-7.8c-0.6-0.1-1.2,0.4-1.3,1.1c-0.1,0.6,0.4,1.2,1.1,1.3l75.7,7.8
						c0.6,0.1,1.2-0.4,1.3-1.1C348.4,289.6,348,289,347.3,289z"/>
				</g>
			</g>
			<g>
				<defs>
					<polygon id="SVGID_25_" points="437.6,94.8 423.5,232.7 414.8,317.5 293.3,305.1 269.7,302.7 254.6,301.1 268,170.2 
						277.4,78.4 					"/>
				</defs>
				<clipPath id="SVGID_26_">
					<use xlink:href="#SVGID_25_"  style="overflow:visible;"/>
				</clipPath>
				<path class="st35" d="M416.2,213.5c-3.9-0.3-5.2,5.9-5.2,5.9s-6.1-8-5.1-26.9c0,0-3-8.4-11-3.3c-8,5.1-16.3,22.9-14.3,42.2
					L365,179.7c-5.4,1.1-16.3,8.4-13.4,43.3l-17-18c0,0-4.6-1.5-7.2,2.6c-2.6,4.1-1.4,33.2,0.8,44.1c2.2,10.9-3.3,32.8-3.3,32.8
					s-5.9-24.8-16.5-31.1L268,170.2l-13.4,130.9l15.1,1.5l24.3-11.8c-0.1,5.5-0.3,10.5-0.7,14.2l121.4,12.4l8.7-84.8
					C420.5,222.1,417.7,213.6,416.2,213.5z"/>
			</g>
			<g>
				<polygon id="XMLID_4_" class="st2" points="437.6,94.8 423.5,232.7 414.8,317.5 293.3,305.1 269.7,302.7 254.6,301.1 268,170.2 
					277.4,78.4 				"/>
			</g>
		</g>
		<g>
			<g>
				<g>
					<path class="st12" d="M435.6,449.8l-71,12.1c0,0-12.4-65.6-19.7-76c-7.4-10.4-6-14.6-9.6-21.6c-2.2-4.2-13-12.1-21.5-19.8h0
						c-0.7-0.7-1.5-1.3-2.1-2c-0.3-0.3-0.6-0.6-0.9-0.8c-1.1-1.1-2.2-2.2-3.1-3.3c-0.3-0.4-0.7-0.8-1-1.1c-1.8-2.2-3-4.2-3.4-6.1
						c0-0.1,0-0.2-0.1-0.3c0-0.1,0-0.2-0.1-0.4c-0.2-1.5-0.4-3.3-0.6-5.2c0-0.4-0.1-0.8-0.1-1.2c0-0.2,0-0.3-0.1-0.5
						c-0.2-1.6-0.4-3.3-0.6-5c-0.2-1.8-0.5-3.7-0.7-5.6c-0.1-0.7-0.2-1.3-0.3-2c0,0,0,0,0,0c-0.1-0.7-0.2-1.5-0.4-2.2
						c-0.1-0.6-0.2-1.3-0.3-1.9c0-0.1,0-0.2-0.1-0.3c-0.1-0.8-0.3-1.5-0.4-2.2c0-0.1,0-0.2,0-0.2c-0.1-0.6-0.3-1.3-0.4-1.9
						c-0.3-1.5-0.7-2.9-1-4.2c-0.8-2.8-1.6-5.3-2.6-7.6c-5.1-11.4,1.5-7.3-2.5-36.7c0,0,3-6.8,11.4-1.4c0.6,0.4,1.3,0.9,1.9,1.4h0
						c1.7,1.4,3.2,3,4.5,4.8c1.7,2.4,3,5,3.9,8c1.3,4.4,1.8,9.2,1.1,14.3c0,0,6.3,21.7,9.6,26.6c3.3,4.9,17.1-23.4,16.2-26.7
						c-0.2-0.7-0.4-2.3-0.7-4.5c-0.1-0.5-0.1-1-0.2-1.6c-0.1-0.5-0.1-1.1-0.2-1.7c0-0.3-0.1-0.6-0.1-0.9c0-0.1,0-0.2,0-0.4
						c-0.1-1.1-0.3-2.3-0.4-3.6c0-0.4-0.1-0.7-0.1-1c-0.1-0.6-0.1-1.2-0.2-1.8c0-0.1,0-0.2,0-0.3c0-0.3-0.1-0.7-0.1-1
						c-0.1-0.7-0.1-1.4-0.2-2.1c-0.1-0.6-0.1-1.2-0.2-1.8c-0.1-1.1-0.2-2.3-0.3-3.4c-0.1-0.8-0.2-1.6-0.2-2.4c0-0.2,0-0.4,0-0.5
						c-0.4-4.4-0.8-8-0.9-9.6c0,0-10-14.8-11-21.8c-1-7-0.9-14.3,3.2-17.3c9.9-7.1,7,4.3,11.5,9c4.4,4.7,11.2,12.4,15.1,14.8
						c3.6,2.3,6.7,11,7.2,12.3c-0.5-1.9-5.6-20.8-5.7-24.6c-0.1-4-3.2-25.2,2-32.8c5.2-7.6,12.1-1.7,12.8-0.2s0.8,22,2.7,27.7
						c1.8,5.7,9.5,29.5,9.5,29.5s0.3-23.1,2-33.5c1.7-10.3,6.2-18.4,10.6-18.9c4.4-0.5,8.5,4.4,8.5,4.4s-1.7,16.5-1.2,20.3
						c0.5,3.8-0.7,17.6,1.4,25c0,0-0.2-19.7,2.8-22.2c3.1-2.5,5.7-3.7,7.4-2c1.7,1.7,2.1,13.4,3.8,20.4c1.8,7,1.5,16.6,2.7,27.5
						c1.1,11,5.7,26.1,4.8,34.8c-0.9,8.7-3.7,30.2-5.9,42.9c-2.2,12.7-7.9,30-7.9,30s2.6,9.2,2.1,17.5
						C415.3,394.9,435.6,449.8,435.6,449.8z"/>
				</g>
				<g>
					<path class="st36" d="M375.2,211c1.4,4.2,5.9,18.3,8.2,25.4c0,0-9.9,7.3-9.7,14.1c0.3,6.8-1.8,20.5-6.3,20.1
						c-4.4-0.4-4.1-28.9-5.5-33.6c0.9,2.1,1.5,3.7,1.6,4.1c-0.3-1.2-5.6-20.8-5.7-24.7c0-0.9-0.2-2.7-0.4-5.1l0,0
						c0,0,9.9-9.4,17.1-3.7l0,0C374.7,208.9,375,210.1,375.2,211z"/>
					<path class="st36" d="M404.7,219.1c-4.6,4.4-11.6,12.1-12.5,19.6c0,0,2.6,20.9,1.5,30l-9-28.2c0,0,0.3-23.1,2.1-33.5
						c0-0.3,0.1-0.6,0.2-0.9c4.4-2.3,10.5-4.3,18.1-4.4c-0.3,4.5-0.6,9.2-0.4,11.1C404.8,214,404.8,216.3,404.7,219.1z"/>
					<path class="st36" d="M408.8,215.5L408.8,215.5C408.8,215.5,408.8,215.5,408.8,215.5c-0.1,0.1-0.4,0.3-0.8,0.7
						c0.2-0.5,0.5-0.9,0.8-1.3L408.8,215.5z"/>
					<path class="st36" d="M411.2,273.2c0,0-5.9-22.3-6-40.2c0-6.6,0.7-12.7,2.9-16.8l0,0c0.2-0.5,0.5-0.9,0.8-1.3l0,0.6
						c1.3-1,2.5-1.9,3.5-2.3c-1.7,2.6-3.6,7.7-1.4,16C414.5,242.1,411.4,257.9,411.2,273.2z"/>
					<path class="st36" d="M329.2,315.6c0,0,1.6,21.2-15.5,28.8h0c-0.7-0.7-1.5-1.3-2.1-2c-0.3-0.3-0.6-0.6-0.9-0.8
						c-1.1-1.1-2.2-2.2-3.1-3.3c-0.3-0.4-0.7-0.8-1-1.1c-1.8-2.2-3-4.2-3.4-6.1c0-0.1-0.1-0.2-0.1-0.3c0-0.1,0-0.3-0.1-0.4
						c-0.2-1.5-0.4-3.3-0.6-5.2c0-0.4-0.1-0.8-0.1-1.2c0-0.2,0-0.3-0.1-0.5c-0.2-1.6-0.4-3.3-0.6-5.1c-0.2-1.8-0.5-3.7-0.7-5.6
						c-0.1-0.7-0.2-1.3-0.3-2c0,0,0,0,0,0c-0.1-0.7-0.2-1.5-0.4-2.2c-0.1-0.6-0.2-1.3-0.3-1.9c0-0.1,0-0.2-0.1-0.3
						c-0.1-0.7-0.3-1.5-0.4-2.2c0-0.1,0-0.2,0-0.3c-0.1-0.7-0.3-1.3-0.4-1.9c-0.3-1.4-0.7-2.9-1-4.3c6.8-6.5,22.3-2.4,14.8-17.5
						c0,0,3.8-12.9-6.7-26.8l0,0c7.2,5.8,10.8,15.9,9.5,27c0,0,6.3,21.7,9.6,26.6c3.3,4.9,17.1-23.4,16.2-26.7
						c-0.2-0.7-0.4-2.3-0.7-4.5c-0.1-0.5-0.1-1-0.2-1.6c-0.1-0.5-0.1-1.1-0.2-1.7c0-0.3-0.1-0.6-0.1-0.9c0-0.1,0-0.2,0-0.4
						c-0.1-1.1-0.3-2.3-0.4-3.6c0-0.3-0.1-0.7-0.1-1c-0.1-0.6-0.1-1.2-0.2-1.8c0-0.1,0-0.2,0-0.3c0-0.3-0.1-0.7-0.1-1.1
						c-0.1-0.7-0.1-1.4-0.2-2.1c-0.1-0.6-0.1-1.2-0.2-1.8c-0.1-1.1-0.2-2.3-0.3-3.4c-0.1-0.8-0.2-1.7-0.2-2.4c0-0.2,0-0.4,0-0.5
						c0.3,1.3,5.3,25.4,8.2,31.1C349.6,290.2,337,320.7,329.2,315.6z"/>
					<path class="st36" d="M421.6,339.1c-2.2,12.7-7.9,30-7.9,30s2.6,9.2,2.1,17.5c-0.1,2.2,1.2,7.8,3.3,14.8
						c-0.6-1.5-7-18.1-6.9-23.8c0.1-6-1.6-7.7-5-15.1c-3.4-7.4-8.5-6.6-8.5-6.6s-2,18.5-6.6,6.4c-4.7-12.2-5.6-26.4,6.2-75.6
						c0,0,1.8,6.2,0.3,24.5c-1.5,18.3,2.9,23.9,2.9,23.9s9.5-15.6,15.6-36.4c0,0-1.5,21.4-2.9,31.1s4.8-11.3,9.1-24.3
						c4-12.2,4.2-16.8,2.7-25.5c1.1,6.1,2,11.9,1.6,16.2C426.6,304.9,423.9,326.5,421.6,339.1z"/>
					<path class="st36" d="M341.4,380.4c3.5,5.5,11.9,12.8,17,32.9c5,20.1,1.9,42.1,1.9,42.1L341.4,380.4z"/>
				</g>
				<path class="st11" d="M314.5,266.2c0,0-17.7,9-19.1,24c-5.1-11.4,1.5-7.3-2.5-36.7c0,0,3-6.8,11.4-1.4c0.6,0.4,1.3,0.9,1.9,1.4
					h0c1.7,1.4,3.2,3,4.5,4.8L314.5,266.2z"/>
				<g>
					<path class="st2" d="M364.6,461.9c0,0-12.4-65.7-19.7-76c-7.4-10.3-6-14.6-9.6-21.6c-3.6-7-30.9-23.9-32.1-33.8
						c-1.2-9.9-2.6-28.9-7.7-40.3c-5.1-11.4,1.5-7.3-2.5-36.7c0,0,3-6.8,11.4-1.4s12.8,16.3,11.4,28.4c0,0,6.3,21.6,9.7,26.6
						c3.3,4.9,17.1-23.4,16.2-26.7s-3.5-31.5-3.9-36.6c0,0-10-14.8-11-21.8c-1-7-0.9-14.3,3.2-17.3c9.9-7.1,7,4.3,11.5,9
						c4.4,4.7,11.3,12.4,15.1,14.8c3.9,2.4,7.2,12.5,7.2,12.5s-5.6-20.7-5.8-24.8c-0.1-4-3.2-25.2,2-32.7c5.2-7.6,12.1-1.7,12.8-0.2
						c0.6,1.5,0.8,22,2.7,27.7c1.8,5.7,9.5,29.5,9.5,29.5s0.3-23.1,2.1-33.5c1.7-10.3,6.2-18.4,10.6-18.9c4.4-0.5,8.5,4.4,8.5,4.4
						s-1.7,16.5-1.2,20.3c0.5,3.8-0.7,17.6,1.4,25c0,0-0.2-19.7,2.8-22.2c3.1-2.5,5.7-3.7,7.4-2s2.1,13.4,3.8,20.4
						s1.5,16.6,2.7,27.5c1.1,10.9,5.7,26.2,4.8,34.8c-0.9,8.7-3.7,30.2-5.9,42.9c-2.2,12.7-7.9,30-7.9,30s2.6,9.2,2.1,17.5
						s19.8,63.2,19.8,63.2"/>
					<path class="st2" d="M384.7,240.5c2.1,4.9,7.2,25.4,9,28.2c1.8,2.8,3.9,3.7,3.9,3.7"/>
					<path class="st2" d="M406,237.8c0,0-0.4,4.2,1.8,17.6s3.4,19.1,4.6,22.1"/>
					<path class="st2" d="M363.6,241c2.8,8.2,4.3,21.2,5.9,25.1s3,4.7,3,4.7"/>
					<path class="st2" d="M368.1,260.6c0,0,2.9,2.2,3.8,4.8"/>
					<path class="st2" d="M325.3,307.1c0,0,1.5,10.8,8.3,10"/>
					<path class="st2" d="M341.5,280.4c0,0,1.8,12.9-1.1,18.3"/>
					<path class="st2" d="M395.7,280.5c0,0,4.6,2.8,1.5,11c-3,8.2-8.4,41.2-8.4,41.2"/>
					<path class="st2" d="M415.6,289.1c1.9,7.4,2.1,7.6-1,16.7c-3.1,9.1-8.1,31.4-8.1,31.4"/>
					<path class="st2" d="M413.7,369.1c0,0-3-6-0.5-11"/>
					<path class="st2" d="M344.9,385.9c0,0,7.5,10.6,10.8,22.4"/>
				</g>
			</g>
			<g>
				<polygon class="st25" points="400.3,200.2 402.4,198.2 403.3,198 403.2,199 401.4,201.3 				"/>
				<g>
					<g>
						<path id="XMLID_303_" class="st3" d="M402,201.3l-3.3,7.5l-89.2,118.9l-9.9-6.3l13.5-16.9l80.1-100.5l7.1-4.5
							C400.2,199.6,401.7,199.9,402,201.3z"/>
					</g>
					<g>
						<defs>
							<path id="SVGID_27_" d="M402,201.3l-3.3,7.5l-89.2,118.9l-9.9-6.3l13.5-16.9l80.1-100.5l7.1-4.5
								C400.2,199.6,401.7,199.9,402,201.3z"/>
						</defs>
						<clipPath id="SVGID_28_">
							<use xlink:href="#SVGID_27_"  style="overflow:visible;"/>
						</clipPath>
						<path class="st37" d="M402,201.3l-3.3,7.5l-89.2,118.9l-9.9-6.3l13.5-16.9c6.2-0.6,7.2,3,7.2,3l76.9-100.3
							c-0.8-2.7-4-3.2-4-3.2l7.1-4.5C400.2,199.6,401.7,199.9,402,201.3z"/>
					</g>
					<g>
						<path id="XMLID_5_" class="st2" d="M402,201.3l-3.3,7.5l-89.2,118.9l-9.9-6.3l13.5-16.9l80.1-100.5l7.1-4.5
							C400.2,199.6,401.7,199.9,402,201.3z"/>
					</g>
				</g>
				<g>
					<g>
						<path id="XMLID_304_" class="st3" d="M338.6,292.6c0,0-10,19.8-19.5,33.7l-6.8,1.8c0,0-15.7,15.6-25.3,23.4
							c0,0-2.5-1.4-4.7-3.9c0,0,13.6-26.1,28.6-42.6c0,0,2.2,0.7,4.9,2.6c1.6,1.2,3.5,2.8,5.2,4.9l16.8-21.1L338.6,292.6z"/>
					</g>
					<g>
						<defs>
							<path id="SVGID_29_" d="M338.6,292.6c0,0-10,19.8-19.5,33.7l-6.8,1.8c0,0-15.7,15.6-25.3,23.4c0,0-2.5-1.4-4.7-3.9
								c0,0,13.6-26.1,28.6-42.6c0,0,2.2,0.7,4.9,2.6c1.6,1.2,3.5,2.8,5.2,4.9l16.8-21.1L338.6,292.6z"/>
						</defs>
						<clipPath id="SVGID_30_">
							<use xlink:href="#SVGID_29_"  style="overflow:visible;"/>
						</clipPath>
						<path class="st38" d="M338.6,292.6c0,0-10,19.8-19.5,33.7l-6.8,1.8c0,0-15.7,15.6-25.3,23.4l0.3-4.2
							c10.4-15.9,23.6-33.2,28.6-39.7c1.6,1.2,3.5,2.8,5.2,4.9l-9.3,12.4l5.3-1l20.8-32.6L338.6,292.6z"/>
					</g>
					<g>
						<path id="XMLID_6_" class="st2" d="M338.6,292.6c0,0-10,19.8-19.5,33.7l-6.8,1.8c0,0-15.7,15.6-25.3,23.4c0,0-2.5-1.4-4.7-3.9
							c0,0,13.6-26.1,28.6-42.6c0,0,2.2,0.7,4.9,2.6c1.6,1.2,3.5,2.8,5.2,4.9l16.8-21.1L338.6,292.6z"/>
					</g>
				</g>
			</g>
			<g>
				<path class="st12" d="M372.5,270.8l-27.9,27l-4.5,4.3c3-7.8,1.6-20,1.4-21.4c0,0,0,0,0,0c0-0.1,0-0.1,0-0.1c0-0.1,0-0.2,0-0.2
					c-0.2-0.7-0.4-2.3-0.7-4.5c-0.1-0.5-0.1-1-0.2-1.6c-0.1-0.5-0.1-1.1-0.2-1.7c0-0.3-0.1-0.6-0.1-0.9c0-0.1,0-0.2,0-0.4
					c-0.1-1.1-0.3-2.3-0.4-3.6c0-0.3-0.1-0.7-0.1-1c-0.1-0.6-0.1-1.2-0.2-1.8c0-0.1,0-0.2,0-0.3c0-0.3-0.1-0.7-0.1-1.1
					c-0.1-0.7-0.1-1.4-0.2-2.1c-0.1-0.6-0.1-1.2-0.2-1.8c-0.1-1.1-0.2-2.3-0.3-3.4c-0.1-0.8-0.2-1.6-0.2-2.4c0-0.2,0-0.4,0-0.5
					c-0.4-4.4-0.8-8-0.9-9.6c0,0-10-14.8-11-21.8c-1-7-0.9-14.3,3.3-17.3c9.9-7.1,7,4.3,11.5,9c4.4,4.7,11.3,12.4,15.1,14.8
					c3.9,2.4,7.2,12.5,7.2,12.5c2.8,8.2,4.3,21.2,5.9,25.1C371.1,270,372.5,270.8,372.5,270.8z"/>
				<path class="st2" d="M368.1,260.6c0,0,2.9,2.2,3.8,4.8"/>
				<path class="st36" d="M341.2,213.7c4.4,4.7,11.2,12.4,15.1,14.8c-0.5-0.3-7.6-3.7-11.6,0.1c-4.1,4-7.1,15.2-7.1,15.2
					s-10-14.8-11-21.8c-1-7-0.9-14.3,3.3-17.3C339.7,197.6,336.8,209,341.2,213.7z"/>
				<path class="st36" d="M344.6,297.8l-4.5,4.3c3-7.8,1.6-20,1.4-21.4c0,0,0,0,0,0c0-0.1,0-0.2,0-0.3c-0.2-0.7-0.4-2.3-0.7-4.5
					c-0.1-0.5-0.1-1-0.2-1.6c-0.1-0.5-0.1-1.1-0.2-1.7c0-0.3-0.1-0.6-0.1-0.9c0-0.1,0-0.2,0-0.4c-0.1-1.1-0.3-2.3-0.4-3.6
					c0-0.3-0.1-0.7-0.1-1c-0.1-0.6-0.1-1.2-0.2-1.8c0-0.1,0-0.2,0-0.3c0-0.3-0.1-0.7-0.1-1.1c-0.1-0.7-0.1-1.4-0.2-2.1
					c-0.1-0.6-0.1-1.2-0.2-1.8c-0.1-1.1-0.2-2.3-0.3-3.4c-0.1-0.8-0.2-1.7-0.2-2.4c0-0.2,0-0.4,0-0.5c0.3,1.3,5.3,25.4,8.2,31.1
					C347.8,286.5,346.7,292,344.6,297.8z"/>
				<path class="st2" d="M372.5,270.8c0,0-1.4-0.8-3-4.7s-3.1-16.9-5.9-25.1c0,0-3.4-10-7.2-12.5c-3.9-2.4-10.7-10.1-15.1-14.8
					s-1.5-16.1-11.5-9c-4.2,3-4.3,10.3-3.2,17.3c1,7,11,21.8,11,21.8c0.4,5.1,3.1,33.3,3.9,36.6"/>
				<path class="st2" d="M341.5,280.4c0,0,1.8,12.9-1.1,18.3"/>
			</g>
		</g>
	</g>
</g>
<g id="Left_hand">
	<g>
		<path class="st11" d="M170.5,296.1c0,0,6.3,29.4-7.4,50.8c-13.7,21.4-24.3,27.1-29,33.5s-23.3,42.1-23.3,42.1l-21.7-64.3
			l21.7-79.5L170.5,296.1z"/>
		<g>
			<g>
				<polygon id="XMLID_309_" class="st12" points="298.4,273.6 163.8,330.3 149.9,336.1 123.8,274 63.1,129.8 211.5,67.3 				"/>
			</g>
			<g>
				<defs>
					<polygon id="SVGID_31_" points="298.4,273.6 163.8,330.3 149.9,336.1 123.8,274 63.1,129.8 211.5,67.3 					"/>
				</defs>
				<clipPath id="SVGID_32_">
					<use xlink:href="#SVGID_31_"  style="overflow:visible;"/>
				</clipPath>
				<path class="st39" d="M173.2,94.1l-64.1,27c-1.2,0.5-1.8,1.9-1.3,3.1c0.5,1.2,1.9,1.8,3.1,1.3l64.1-27c1.2-0.5,1.8-1.9,1.3-3.1
					C175.8,94.2,174.4,93.6,173.2,94.1z"/>
			</g>
			<g>
				<defs>
					<polygon id="SVGID_33_" points="298.4,273.6 163.8,330.3 149.9,336.1 123.8,274 63.1,129.8 211.5,67.3 					"/>
				</defs>
				<clipPath id="SVGID_34_">
					<use xlink:href="#SVGID_33_"  style="overflow:visible;"/>
				</clipPath>
				<path class="st40" d="M160.9,109.8l-32,13.5c-0.6,0.3-0.9,0.9-0.6,1.5c0.3,0.6,0.9,0.9,1.5,0.6l32-13.5c0.6-0.3,0.9-0.9,0.6-1.5
					C162.2,109.9,161.5,109.6,160.9,109.8z"/>
			</g>
			<g>
				<defs>
					<polygon id="SVGID_35_" points="298.4,273.6 163.8,330.3 149.9,336.1 123.8,274 63.1,129.8 211.5,67.3 					"/>
				</defs>
				<clipPath id="SVGID_36_">
					<use xlink:href="#SVGID_35_"  style="overflow:visible;"/>
				</clipPath>
				<g class="st41">
					<g>
						<path class="st27" d="M213.6,192c0,0,1.4,10.6-2.6,12.3c-3.6,1.5-8.4-4.2-12.5-2.4c-4.2,1.7-0.9,16.8-4.9,18.5
							s-8.8-4.5-12.3-3c-3.5,1.5-1.4,9.2-4.9,10.7c-2.9,1.2-7.1-4.9-10.5-6.3c-0.7-0.3-1.4-0.4-2-0.1c-3.5,1.5-1.8,17.6-4.8,18.9
							c-1,0.4-1.9,0.5-2.7,0.4c-1.2-0.1-2.3-0.4-3.4-0.3c-0.4,0-0.8,0.1-1.3,0.3c-2.6,1.1-2.2,9.6-4.6,10.6s-4.7-0.2-7.2,0.8
							s-2.5,5.5-6.3,7.1l1.6,3.8l92.1-38.8"/>
						<polyline class="st2" points="116.6,218.9 135.2,263.2 231.6,222.6 						"/>
						<path class="st25" d="M221,209.6c0,0-0.5-0.6-1.1-1.2c-1.2-1.1-3.1-2.6-4.5-2c-1.4,0.6-1.5,2.9-1.5,5.4c0,3,0.3,6.3-1.2,6.9
							c-1.3,0.5-2.5-0.3-3.7-1.2c-1.4-1-2.8-2.1-4.5-1.4c-2.8,1.2-2,4.9-3,8.1c-0.5,1.6-1.5,3.1-3.7,4c-2.5,1-4.9,0-7.3-1.6
							c-4-2.7-7.5-7.1-9.8-6.1c-3.7,1.5,0.4,11.5-3.6,13.1c-2.2,0.9-6.8-6-11.2-12c-3.5-4.7-6.9-8.8-9-8c-4.8,2,3.1,25.7-0.4,27.2
							c0,0-0.1,0-0.1,0c-1.4,0.6-2.5,0.2-3.4-0.3c-1.2-0.7-2.3-1.7-3.6-1.1c-2.5,1.1-1.1,10.4-3.9,11.6c-2.8,1.2-4.5-0.5-7.6,0.8
							c-2.7,1.1-4.3,7.6-4.3,7.6l1.6,3.8l92.1-38.8"/>
					</g>
					<path class="st16" d="M201.6,241.2l-32,13.5c-0.6,0.3-0.9,0.9-0.6,1.5c0.3,0.6,0.9,0.9,1.5,0.6l32-13.5
						c0.6-0.3,0.9-0.9,0.6-1.5C202.8,241.2,202.2,241,201.6,241.2z"/>
					<g>
						<g>
							<path class="st27" d="M228.7,192.4l-3.1,1.3c-0.3,0.1-0.7,0-0.8-0.3l-1.3-3.1c-0.1-0.3,0-0.7,0.3-0.8l3.1-1.3
								c0.3-0.1,0.7,0,0.8,0.3l1.3,3.1C229.2,191.9,229,192.2,228.7,192.4z"/>
							<g>
								<g>
									<path class="st16" d="M243.7,182.9l-12.8,5.4c-0.3,0.1-0.6,0-0.7-0.3s0-0.6,0.3-0.7l12.8-5.4c0.3-0.1,0.6,0,0.7,0.3
										S243.9,182.8,243.7,182.9z"/>
								</g>
								<g>
									<path class="st16" d="M240.7,186.7l-8.9,3.7c-0.3,0.1-0.6,0-0.7-0.3s0-0.6,0.3-0.7l8.9-3.7c0.3-0.1,0.6,0,0.7,0.3
										C241.1,186.2,240.9,186.6,240.7,186.7z"/>
								</g>
							</g>
						</g>
						<g>
							<path class="st25" d="M232.7,201.9l-3.1,1.3c-0.3,0.1-0.7,0-0.8-0.3l-1.3-3.1c-0.1-0.3,0-0.7,0.3-0.8l3.1-1.3
								c0.3-0.1,0.7,0,0.8,0.3l1.3,3.1C233.2,201.4,233,201.8,232.7,201.9z"/>
							<g>
								<g>
									<path class="st16" d="M247.7,192.4l-12.8,5.4c-0.3,0.1-0.6,0-0.7-0.3s0-0.6,0.3-0.7l12.8-5.4c0.3-0.1,0.6,0,0.7,0.3
										S247.9,192.3,247.7,192.4z"/>
								</g>
								<g>
									<path class="st16" d="M244.7,196.2l-8.9,3.7c-0.3,0.1-0.6,0-0.7-0.3s0-0.6,0.3-0.7l8.9-3.7c0.3-0.1,0.6,0,0.7,0.3
										C245.1,195.8,244.9,196.1,244.7,196.2z"/>
								</g>
							</g>
						</g>
					</g>
				</g>
			</g>
			<g>
				<defs>
					<polygon id="SVGID_37_" points="298.4,273.6 163.8,330.3 149.9,336.1 123.8,274 63.1,129.8 211.5,67.3 					"/>
				</defs>
				<clipPath id="SVGID_38_">
					<use xlink:href="#SVGID_37_"  style="overflow:visible;"/>
				</clipPath>
				<g class="st42">
					<path class="st16" d="M264.5,231.7l-104,43.8c-0.6,0.3-0.9,0.9-0.6,1.5c0.3,0.6,0.9,0.9,1.5,0.6l104-43.8
						c0.6-0.3,0.9-0.9,0.6-1.5C265.8,231.7,265.1,231.4,264.5,231.7z"/>
					<path class="st16" d="M267.8,239.5l-120.9,50.9c-0.6,0.3-0.9,0.9-0.6,1.5c0.3,0.6,0.9,0.9,1.5,0.6l120.9-50.9
						c0.6-0.3,0.9-0.9,0.6-1.5C269.1,239.5,268.4,239.2,267.8,239.5z"/>
					<path class="st16" d="M271.1,247.3l-120.9,50.9c-0.6,0.3-0.9,0.9-0.6,1.5c0.3,0.6,0.9,0.9,1.5,0.6L272,249.5
						c0.6-0.3,0.9-0.9,0.6-1.5C272.4,247.3,271.7,247.1,271.1,247.3z"/>
					<path class="st16" d="M274.4,255.1L153.5,306c-0.6,0.3-0.9,0.9-0.6,1.5c0.3,0.6,0.9,0.9,1.5,0.6l120.9-50.9
						c0.6-0.3,0.9-0.9,0.6-1.5C275.7,255.2,275,254.9,274.4,255.1z"/>
					<path class="st16" d="M226.9,284.4l-70.1,29.5c-0.6,0.3-0.9,0.9-0.6,1.5c0.3,0.6,0.9,0.9,1.5,0.6l70.1-29.5
						c0.6-0.3,0.9-0.9,0.6-1.5C228.2,284.4,227.5,284.1,226.9,284.4z"/>
				</g>
			</g>
			<g>
				<defs>
					<polygon id="SVGID_39_" points="298.4,273.6 163.8,330.3 149.9,336.1 123.8,274 63.1,129.8 211.5,67.3 					"/>
				</defs>
				<clipPath id="SVGID_40_">
					<use xlink:href="#SVGID_39_"  style="overflow:visible;"/>
				</clipPath>
				<g class="st43">
					<g>
						<g>
							<path class="st27" d="M188.3,131.7c0,0,1.4,10.6-2.6,12.3c-3.6,1.5-8.4-4.2-12.5-2.4c-4.2,1.7-0.9,16.8-4.9,18.5
								s-8.8-4.5-12.3-3c-3.5,1.5-1.4,9.2-4.9,10.7c-2.9,1.2-7.1-4.9-10.5-6.3c-0.7-0.3-1.4-0.4-2-0.1c-3.5,1.5-1.8,17.6-4.8,18.9
								c-1,0.4-1.9,0.5-2.7,0.4c-1.2-0.1-2.3-0.4-3.4-0.3c-0.4,0-0.8,0.1-1.3,0.3c-2.6,1.1-2.2,9.6-4.6,10.6c-2.4,1-4.7-0.2-7.2,0.8
								c-2.5,1.1-2.5,5.5-6.3,7.1l1.6,3.8l92.1-38.8"/>
							<path class="st24" d="M194.2,145.9c0,0,0.8,5.1-1.2,6c-1.7,0.7-2.7-0.3-4.5-0.3c-0.7,0-1.5,0.1-2.6,0.5
								c-1.6,0.7-2,2.9-2.3,5.2c-0.4,2.9-0.5,6.1-2.7,7c-1.5,0.6-3.1,0.3-4.8-0.3c-2.6-0.9-5.4-2.4-8.1-1.2c-1.3,0.5-2.2,2-2.9,3.7
								c-1.7,4.1-2.2,10.1-4,10.9c-2.6,1.1-7.3-3.3-9.6-2.4s-1.3,4.9-3.2,5.7c-1.9,0.8-2.9-1.5-6.2-0.1c-3.3,1.4-1.7,6.2-6.3,8.1
								c-4.6,1.9-6.6-1.6-11.1,0.2c-4.4,1.9-3.6,5.2-6.8,6.6s-4.5-1-6.7,0c-2.2,0.9-2.8,4.5-2.8,4.7l1.2,2.9l92.1-38.8"/>
						</g>
						<polyline class="st2" points="91.2,158.7 109.8,203 206.3,162.4 						"/>
					</g>
					<path class="st16" d="M175.9,180.3l-32,13.5c-0.6,0.3-0.9,0.9-0.6,1.5s0.9,0.9,1.5,0.6l32-13.5c0.6-0.3,0.9-0.9,0.6-1.5
						C177.2,180.3,176.5,180,175.9,180.3z"/>
					<g>
						<g>
							<path class="st27" d="M201.7,128.3l-3.1,1.3c-0.3,0.1-0.7,0-0.8-0.3l-1.3-3.1c-0.1-0.3,0-0.7,0.3-0.8l3.1-1.3
								c0.3-0.1,0.7,0,0.8,0.3l1.3,3.1C202.2,127.8,202.1,128.1,201.7,128.3z"/>
							<g>
								<g>
									<path class="st16" d="M216.7,118.8l-12.8,5.4c-0.3,0.1-0.6,0-0.7-0.3s0-0.6,0.3-0.7l12.8-5.4c0.3-0.1,0.6,0,0.7,0.3
										C217.1,118.4,217,118.7,216.7,118.8z"/>
								</g>
								<g>
									<path class="st16" d="M213.7,122.6l-8.9,3.7c-0.3,0.1-0.6,0-0.7-0.3s0-0.6,0.3-0.7l8.9-3.7c0.3-0.1,0.6,0,0.7,0.3
										C214.1,122.1,213.9,122.4,213.7,122.6z"/>
								</g>
							</g>
						</g>
						<g>
							<path class="st24" d="M205.7,137.8l-3.1,1.3c-0.3,0.1-0.7,0-0.8-0.3l-1.3-3.1c-0.1-0.3,0-0.7,0.3-0.8l3.1-1.3
								c0.3-0.1,0.7,0,0.8,0.3l1.3,3.1C206.2,137.3,206.1,137.6,205.7,137.8z"/>
							<g>
								<g>
									<path class="st16" d="M220.7,128.3l-12.8,5.4c-0.3,0.1-0.6,0-0.7-0.3s0-0.6,0.3-0.7l12.8-5.4c0.3-0.1,0.6,0,0.7,0.3
										S221,128.2,220.7,128.3z"/>
								</g>
								<g>
									<path class="st16" d="M217.7,132.1l-8.9,3.7c-0.3,0.1-0.6,0-0.7-0.3s0-0.6,0.3-0.7l8.9-3.7c0.3-0.1,0.6,0,0.7,0.3
										C218.1,131.7,218,132,217.7,132.1z"/>
								</g>
							</g>
						</g>
					</g>
				</g>
			</g>
			<g>
				<defs>
					<polygon id="SVGID_41_" points="298.4,273.6 163.8,330.3 149.9,336.1 123.8,274 63.1,129.8 211.5,67.3 					"/>
				</defs>
				<clipPath id="SVGID_42_">
					<use xlink:href="#SVGID_41_"  style="overflow:visible;"/>
				</clipPath>
				<path class="st44" d="M163.8,330.3l-13.9,5.8L123.8,274c1.6-1.6,3.6-4.2,4.4-8.6c1.6-8.3,0.5-35.1,21.3-37.8
					c20.8-2.8,3.3,44.1,4.2,53C154.6,288.7,166.4,312.4,163.8,330.3z"/>
			</g>
			<g>
				<polygon id="XMLID_7_" class="st2" points="298.4,273.6 163.8,330.3 149.9,336.1 123.8,274 63.1,129.8 211.5,67.3 				"/>
			</g>
		</g>
		<g>
			<path class="st12" d="M155.4,284c2.3-8,11.5-33.6,10.3-44.9c-0.1-1-0.3-1.9-0.6-2.8c-3.2-8.5-16.3-7.6-21.3-0.6
				c-5.5,7.7-10,21.6-10.4,30c-0.2,4.7-2.2,9-4,11.9c0,0,0,0,0,0c-1.4,2.3-2.6,3.8-2.6,3.8l-29.8-70.8c0,0-4.8,3.9-7.8,8.7
				c-1.2,1.9-2.1,4-2.3,6.1c-0.6,7-8.5,35.6-11.8,47.7c-0.1,0.3-0.1,0.5-0.2,0.7c-3.2,11.6,5.2,54.8,2.8,67.3
				c-2.4,12.5-3.9,12.3-4.2,21.2c-0.3,6.5-9.6,26.3-20,46.6c-6,11.6-12.3,23.4-17.5,33l76.3-3.2c1.3-9.3,2.7-19.1,3.9-28.5
				c0.5-3.9,1.3-7.9,2.3-11.7c0,0,0,0,0,0c1.7-6.8,3.7-13,5-16.6c2-5.6,4-16.1,4-16.1c8.9-9.4,20.5-24.2,23.9-34.2c0,0,0,0,0-0.1
				c0.9-2.5,1.2-4.7,0.8-6.5c-0.3-1.4-0.5-3.3-0.6-5.5c0,0,0,0,0,0C151,308.7,153.5,290.6,155.4,284z"/>
			<path class="st36" d="M129.4,277.6c-2.4,4.8-5.2,9.4-7,14.7c-1.8,5.3-3.8,6.1-9.1,10.2c-5.3,4.2-9.2-2.7-9.2-2.7
				s7.1-7.3,4.7-11.4c-2.4-4.1-11.1-14.3-10.6-19.9c0.5-5.6-5.3-18.2-5.3-18.2s13.3-7.8,10.7-17c-1.4-5-8.4-10.3-14.4-14.1
				c3-4.8,7.8-8.7,7.8-8.7l29.8,70.8C126.7,281.3,128,279.9,129.4,277.6z"/>
			<path class="st36" d="M81,321c0.2,0.6,4.5,14.9,0.9,20.9c-3.7,6.1-7.4,13.9-5.6,22c1.4,6.5-10.6,29.9-22.8,44.9
				c10.4-20.3,19.7-40.1,20-46.6c0.3-8.9,1.8-8.6,4.2-21.2c2.4-12.5-6-55.7-2.8-67.3c0.1-0.2,0.1-0.5,0.2-0.7
				c2.3,13.2,7.8,39.4,9.2,47.8C86.1,331.6,81.2,321.5,81,321z"/>
			<path class="st36" d="M108.4,407.5c8.9-38.2,38.7-67.5,42.8-75.9c-3.4,10-15,24.8-23.9,34.2c0,0-2,10.5-4,16.1
				c-1.2,3.6-3.3,9.8-5,16.6c0,0,0,0,0,0C109.7,408.6,108.4,407.5,108.4,407.5z"/>
			<path class="st36" d="M155.4,284c-2,6.7-4.4,24.7-4.1,35.5c-1.6-6.8-4.6-15.4-5.1-27.5c-0.8-20.4,10.7-13.1,6.7-23.1
				c-4-10-15.5,2.8-9.9-18.4c4.1-15.5,15.9-15.4,21.9-14.2c0.3,0.8,0.5,1.7,0.6,2.8C166.9,250.4,157.8,276,155.4,284z"/>
			<g>
				<path class="st2" d="M47.4,420.7c9.6-17.5,18.9-35.5,25.6-54.9c0.8-2.8-0.3-6.4,0.5-9.2c9.1-25.2-1.2-51.4,0.5-77.2
					c1.4-10.2,4.7-20.4,7.9-30.7c1.5-7.4,2.1-15.7,4.6-23.2c2.5-5.6,5-12.2,10.4-15c10.2,23.4,20.4,46.9,29.8,70.8
					c4.3-2.5,5-8,5.7-12.6c2.3-11.1,4.6-21.3,8.8-30.7c4.3-7.5,15.2-10.7,21.9-4.6c1.9,1.8,2.9,4.5,3.1,7.2
					c-1.3,12.9-5.4,26-9.4,38.1c-1.6,5.6-3.3,10.2-3.9,15.8c0.1,1.8,0.1,2.8,0.2,4.6c-2.4,9.3-0.2,17.5-0.7,26.7
					c-2.1,16.6-15.4,28.2-25,40.6c-2.4,9.3-4.7,18.6-8,27.9c-4,14-5.3,27.8-6.7,41.2"/>
				<path class="st2" d="M126.7,281.3c0,0-3.1,6-4.4,10.9s-7.6,4.2-10.9,7.2"/>
				<path class="st2" d="M102.8,272.7c0,0,8.6,3,13.6,7c5,3.9,8.7,4.9,8.7,4.9"/>
				<path class="st2" d="M97.3,251.4c0,0,6.9,1.9,12.1-0.5c0,0,0.4-4.3,1.3-7.4"/>
				<path class="st2" d="M111.1,251.9c0,0,0.1,1,3.6,1"/>
				<path class="st2" d="M127.3,365.7c0,0-6.8,6.1-10.9,17.2"/>
				<path class="st2" d="M74.4,275.9c-0.3,6,6.7,27.3,8.9,37.9c2.1,10.6,2.9,18.1,2.9,18.1"/>
			</g>
		</g>
	</g>
</g>
</svg>
