<svg width="72" height="72" viewBox="0 0 72 72" fill="none" xmlns="http://www.w3.org/2000/svg">
<path d="M50.0082 6.0012C60.2112 6.0012 65.9712 11.7882 66.0012 21.9912V50.0112C66.0012 60.2112 60.2112 66.0012 50.0082 66.0012H21.9912C11.7882 66.0012 6.00122 60.2112 6.00122 50.0112V21.9912C6.00122 11.7882 11.7882 6.0012 21.9912 6.0012H50.0082ZM37.5012 18.3912C36.6582 17.8812 35.6382 17.8812 34.8312 18.3912C34.0182 18.8982 33.5712 19.8312 33.6582 20.7612V51.3312C33.8112 52.6212 34.8882 53.5812 36.1482 53.5812C37.4412 53.5812 38.5182 52.6212 38.6382 51.3312V20.7612C38.7582 19.8312 38.3112 18.8982 37.5012 18.3912ZM23.4912 28.2312C22.6812 27.7212 21.6582 27.7212 20.8512 28.2312C20.0382 28.7412 19.5912 29.6682 19.6812 30.6012V51.3312C19.7982 52.6212 20.8782 53.5812 22.1682 53.5812C23.4612 53.5812 24.5382 52.6212 24.6582 51.3312V30.6012C24.7512 29.6682 24.2982 28.7412 23.4912 28.2312ZM51.2682 39.1212C50.4612 38.6112 49.4412 38.6112 48.6012 39.1212C47.7882 39.6312 47.3412 40.5282 47.4612 41.4912V51.3312C47.5812 52.6212 48.6582 53.5812 49.9512 53.5812C51.2112 53.5812 52.2882 52.6212 52.4412 51.3312V41.4912C52.5282 40.5282 52.0812 39.6312 51.2682 39.1212Z" fill="#618264"/>
</svg>
