<svg width="120" height="120" viewBox="0 0 120 120" fill="none" xmlns="http://www.w3.org/2000/svg">
<path d="M56.1505 36.4526V16.4075C56.1505 14.2761 57.8505 12.5 60.0005 12.5C61.9255 12.5 63.5564 13.9925 63.8148 15.8829L63.8505 16.4075V36.4526L87.75 36.4541C99.65 36.4541 109.427 46.1989 109.976 58.352L110 59.4304V84.6269C110 96.8652 100.563 106.911 88.8401 107.475L87.8 107.5H32.2C20.3 107.5 10.5704 97.8039 10.0242 85.6063L10 84.5237V59.3788C10 47.1405 19.3895 37.0461 31.11 36.4792L32.15 36.4541H56.15V68.4661L48.15 60.2049C46.65 58.656 44.2 58.656 42.7 60.2049C41.95 60.9794 41.6 62.0121 41.6 63.0447C41.6 63.8295 41.824 64.6474 42.2976 65.3396L42.7 65.8328L57.25 80.9094C57.95 81.6839 58.95 82.097 60 82.097C60.8333 82.097 61.6667 81.8101 62.3264 81.2663L62.7 80.9094L77.25 65.8328C78.75 64.2839 78.75 61.7539 77.25 60.2049C75.8864 58.7968 73.7376 58.6688 72.2312 59.8209L71.8 60.2049L63.85 68.4661V36.4541L56.1505 36.4526Z" fill="#79AC78"/>
</svg>
