<svg width="72" height="72" viewBox="0 0 72 72" fill="none" xmlns="http://www.w3.org/2000/svg">
<path d="M49.9959 6.03101C54.3114 5.76128 58.5671 7.25973 61.7738 10.1967C64.7108 13.4034 66.2092 17.659 65.9695 22.0045V49.9955C66.2392 54.341 64.7108 58.5966 61.8038 61.8033C58.597 64.7403 54.3114 66.2387 49.9959 65.969H22.0046C17.6591 66.2387 13.4034 64.7403 10.1967 61.8033C7.25974 58.5966 5.76128 54.341 6.03101 49.9955V22.0045C5.76128 17.659 7.25974 13.4034 10.1967 10.1967C13.4034 7.25973 17.6591 5.76128 22.0046 6.03101H49.9959ZM49.2167 19.7268C47.3586 17.8688 44.3617 17.8688 42.5036 19.7268L40.4956 21.7647C40.1959 22.0644 40.1959 22.5739 40.4956 22.8736C40.4956 22.8736 40.5545 22.932 40.6592 23.0361L41.3963 23.7693C41.8227 24.1935 42.355 24.7233 42.8894 25.2561L44.7017 27.0675C45.0798 27.4474 45.3307 27.7019 45.3506 27.7286C45.6803 28.0882 45.8901 28.5677 45.8901 29.1071C45.8901 30.186 45.021 31.0851 43.9121 31.0851C43.4026 31.0851 42.9231 30.8753 42.5935 30.5456L37.5886 25.5708C37.3489 25.331 36.9293 25.331 36.6895 25.5708L22.3942 39.866C21.4052 40.855 20.8358 42.1736 20.8058 43.5822L20.626 50.6848C20.626 51.0744 20.7459 51.434 21.0156 51.7038C21.2853 51.9735 21.645 52.1233 22.0346 52.1233H29.0773C30.5159 52.1233 31.8945 51.5539 32.9434 50.535L53.1127 30.3059C54.9408 28.4478 54.9408 25.4509 53.1127 23.6228L49.2167 19.7268Z" fill="#618264"/>
</svg>
