<svg width="95" height="22" viewBox="0 0 95 22" fill="none" xmlns="http://www.w3.org/2000/svg">
<path d="M0.769886 0.636363H6.07955L11.6875 14.3182H11.9261L17.5341 0.636363H22.8438V21H18.6676V7.74574H18.4986L13.2287 20.9006H10.3849L5.11506 7.69602H4.94602V21H0.769886V0.636363ZM33.512 21.2983C31.9675 21.2983 30.6318 20.9702 29.5049 20.3139C28.3846 19.651 27.5196 18.7296 26.9097 17.5497C26.2999 16.3632 25.995 14.9877 25.995 13.4233C25.995 11.8456 26.2999 10.4669 26.9097 9.28693C27.5196 8.10038 28.3846 7.17898 29.5049 6.52273C30.6318 5.85985 31.9675 5.52841 33.512 5.52841C35.0565 5.52841 36.3889 5.85985 37.5092 6.52273C38.6361 7.17898 39.5044 8.10038 40.1143 9.28693C40.7241 10.4669 41.029 11.8456 41.029 13.4233C41.029 14.9877 40.7241 16.3632 40.1143 17.5497C39.5044 18.7296 38.6361 19.651 37.5092 20.3139C36.3889 20.9702 35.0565 21.2983 33.512 21.2983ZM33.5319 18.017C34.2345 18.017 34.8212 17.8182 35.2918 17.4205C35.7625 17.0161 36.1171 16.4659 36.3558 15.7699C36.601 15.0739 36.7237 14.2817 36.7237 13.3935C36.7237 12.5052 36.601 11.7131 36.3558 11.017C36.1171 10.321 35.7625 9.77083 35.2918 9.36648C34.8212 8.96212 34.2345 8.75994 33.5319 8.75994C32.8226 8.75994 32.226 8.96212 31.7421 9.36648C31.2648 9.77083 30.9036 10.321 30.6583 11.017C30.4197 11.7131 30.3004 12.5052 30.3004 13.3935C30.3004 14.2817 30.4197 15.0739 30.6583 15.7699C30.9036 16.4659 31.2648 17.0161 31.7421 17.4205C32.226 17.8182 32.8226 18.017 33.5319 18.017Z" fill="#618264"/>
<path d="M43.3873 4.18608V0.636363H60.1117V4.18608H53.8773V21H49.6217V4.18608H43.3873ZM61.5005 21V5.72727H65.607V8.39205H65.7661C66.0445 7.44413 66.5119 6.72822 67.1681 6.24432C67.8244 5.75379 68.58 5.50852 69.4352 5.50852C69.6473 5.50852 69.876 5.52178 70.1212 5.54829C70.3665 5.57481 70.5819 5.61127 70.7675 5.65767V9.41619C70.5687 9.35653 70.2936 9.3035 69.9423 9.2571C69.5909 9.2107 69.2694 9.1875 68.9778 9.1875C68.3547 9.1875 67.7978 9.32339 67.3073 9.59517C66.8234 9.86032 66.4389 10.2315 66.1539 10.7088C65.8755 11.1861 65.7363 11.7363 65.7363 12.3594V21H61.5005ZM79.4472 21.2983C77.8828 21.2983 76.5371 20.9669 75.4102 20.304C74.29 19.6345 73.4282 18.7064 72.825 17.5199C72.2284 16.3333 71.9301 14.9678 71.9301 13.4233C71.9301 11.8589 72.2317 10.4867 72.8349 9.30682C73.4448 8.12026 74.3098 7.19555 75.4301 6.53267C76.5504 5.86316 77.8828 5.52841 79.4273 5.52841C80.7597 5.52841 81.9263 5.77036 82.9273 6.25426C83.9282 6.73816 84.7204 7.41761 85.3037 8.29261C85.887 9.16761 86.2085 10.1951 86.2682 11.375H82.271C82.1583 10.6127 81.86 9.99953 81.3761 9.53551C80.8989 9.06487 80.2724 8.82955 79.4969 8.82955C78.8406 8.82955 78.2672 9.00852 77.7767 9.36648C77.2928 9.7178 76.915 10.2315 76.6432 10.9077C76.3714 11.5838 76.2355 12.4025 76.2355 13.3636C76.2355 14.3381 76.3681 15.1667 76.6332 15.8494C76.905 16.5322 77.2862 17.0526 77.7767 17.4105C78.2672 17.7685 78.8406 17.9474 79.4969 17.9474C79.9808 17.9474 80.415 17.848 80.7994 17.6491C81.1905 17.4503 81.512 17.1619 81.7639 16.7841C82.0224 16.3996 82.1915 15.9389 82.271 15.402H86.2682C86.2019 16.5687 85.8837 17.5961 85.3136 18.4844C84.7502 19.366 83.9713 20.0554 82.977 20.5526C81.9827 21.0497 80.8061 21.2983 79.4472 21.2983ZM91.756 21.2585C91.0998 21.2585 90.5363 21.0265 90.0657 20.5625C89.6017 20.0919 89.3697 19.5284 89.3697 18.8722C89.3697 18.2225 89.6017 17.6657 90.0657 17.2017C90.5363 16.7377 91.0998 16.5057 91.756 16.5057C92.3924 16.5057 92.9492 16.7377 93.4265 17.2017C93.9038 17.6657 94.1424 18.2225 94.1424 18.8722C94.1424 19.3097 94.0297 19.7107 93.8043 20.0753C93.5856 20.4332 93.2972 20.7216 92.9393 20.9403C92.5813 21.1525 92.1869 21.2585 91.756 21.2585Z" fill="#186F65"/>
</svg>
