<svg width="50" height="22" viewBox="0 0 50 22" fill="none" xmlns="http://www.w3.org/2000/svg">
<path d="M0.769886 0.636363H6.07955L11.6875 14.3182H11.9261L17.5341 0.636363H22.8438V21H18.6676V7.74574H18.4986L13.2287 20.9006H10.3849L5.11506 7.69602H4.94602V21H0.769886V0.636363Z" fill="#618264"/>
<path d="M25.9154 4.18608V0.636363H42.6398V4.18608H36.4055V21H32.1498V4.18608H25.9154ZM47.1334 21.2585C46.4771 21.2585 45.9137 21.0265 45.443 20.5625C44.979 20.0919 44.747 19.5284 44.747 18.8722C44.747 18.2225 44.979 17.6657 45.443 17.2017C45.9137 16.7377 46.4771 16.5057 47.1334 16.5057C47.7697 16.5057 48.3266 16.7377 48.8038 17.2017C49.2811 17.6657 49.5197 18.2225 49.5197 18.8722C49.5197 19.3097 49.4071 19.7107 49.1817 20.0753C48.9629 20.4332 48.6746 20.7216 48.3166 20.9403C47.9587 21.1525 47.5643 21.2585 47.1334 21.2585Z" fill="#186F65"/>
</svg>
