<svg width="72" height="72" viewBox="0 0 72 72" fill="none" xmlns="http://www.w3.org/2000/svg">
<path d="M49.9802 6.00015C60.1802 6.00015 66.0002 11.7601 66.0002 21.9902V50.0102C66.0002 60.1802 60.2103 66.0002 50.0102 66.0002H21.9902C11.7602 66.0002 6.00024 60.1802 6.00024 50.0102V21.9902C6.00024 11.7601 11.7602 6.00015 21.9902 6.00015H49.9802ZM35.9702 22.5302C34.5902 22.5302 33.4802 23.6402 33.4802 25.0202V33.4802H24.9902C24.3302 33.4802 23.7002 33.7502 23.2202 34.2002C22.7702 34.6802 22.5002 35.3072 22.5002 35.9702C22.5002 37.3502 23.6102 38.4602 24.9902 38.4902H33.4802V46.9802C33.4802 48.3602 34.5902 49.4702 35.9702 49.4702C37.3502 49.4702 38.4602 48.3602 38.4602 46.9802V38.4902H46.9802C48.3602 38.4602 49.4702 37.3502 49.4702 35.9702C49.4702 34.5902 48.3602 33.4802 46.9802 33.4802H38.4602V25.0202C38.4602 23.6402 37.3502 22.5302 35.9702 22.5302Z" fill="#618264"/>
</svg>
