<svg width="120" height="120" viewBox="0 0 120 120" fill="none" xmlns="http://www.w3.org/2000/svg">
<path d="M63.8495 83.5474L63.8495 103.592C63.8495 105.724 62.1495 107.5 59.9995 107.5C58.0745 107.5 56.4436 106.008 56.1852 104.117L56.1495 103.592L56.1495 83.5474L32.25 83.5459C20.35 83.5459 10.5733 73.8011 10.0243 61.6479L10 60.5695L10 35.373C10 23.1347 19.4367 13.089 31.1599 12.525L32.2 12.5L87.8 12.5C99.7 12.5 109.43 22.1961 109.976 34.3937L110 35.4763L110 60.6212C110 72.8595 100.61 82.9539 88.89 83.5208L87.85 83.5459L63.85 83.5459L63.85 51.5339L71.85 59.7951C73.35 61.344 75.8 61.344 77.3 59.7951C78.05 59.0206 78.4 57.9879 78.4 56.9553C78.4 56.1705 78.176 55.3526 77.7024 54.6604L77.3 54.1672L62.75 39.0906C62.05 38.3161 61.05 37.903 60 37.903C59.1667 37.903 58.3333 38.1899 57.6736 38.7337L57.3 39.0906L42.75 54.1672C41.25 55.7161 41.25 58.2461 42.75 59.7951C44.1136 61.2032 46.2624 61.3312 47.7688 60.1791L48.2 59.7951L56.15 51.5339L56.15 83.5459L63.8495 83.5474Z" fill="#B2533E"/>
</svg>
