<svg width="64" height="64" viewBox="0 0 64 64" fill="none" xmlns="http://www.w3.org/2000/svg">
<path d="M44.0415 8C53.2386 8 58.6667 13.2922 58.6667 22.3515H47.3837V22.4439C42.1473 22.4439 37.9023 26.5826 37.9023 31.688C37.9023 36.7934 42.1473 40.9321 47.3837 40.9321H58.6667V41.7641C58.6667 50.7078 53.2386 56 44.0415 56H19.9586C10.7615 56 5.33337 50.7078 5.33337 41.7641V22.2359C5.33337 13.2922 10.7615 8 19.9586 8H44.0415ZM56.6756 26.3264C57.7753 26.3264 58.6667 27.1956 58.6667 28.2677V35.0159C58.6539 36.0828 57.7699 36.9447 56.6756 36.9572H47.5971C44.9461 36.9919 42.628 35.2223 42.0267 32.7049C41.7256 31.1421 42.1483 29.5295 43.1816 28.2992C44.2148 27.069 45.753 26.3469 47.3837 26.3264H56.6756ZM48.6637 29.4463H47.7867C47.2482 29.4401 46.7297 29.6444 46.3467 30.0134C45.9637 30.3825 45.7482 30.8857 45.7482 31.4107C45.7481 32.5121 46.657 33.4086 47.7867 33.4213H48.6637C49.7896 33.4213 50.7023 32.5315 50.7023 31.4338C50.7023 30.3361 49.7896 29.4463 48.6637 29.4463ZM33.0193 18.3765H17.9674C16.8508 18.3764 15.9419 19.2523 15.9289 20.3409C15.9289 21.4423 16.8378 22.3388 17.9674 22.3515H33.0193C34.1451 22.3515 35.0578 21.4616 35.0578 20.364C35.0578 19.2663 34.1451 18.3765 33.0193 18.3765Z" fill="#186F65"/>
</svg>
